# xmcd
# 
# Track frame offsets:
#     150
#     21670
#     68792
#     118925
#     162675
#     196777
#     233620
# 
# Disc length: 3754
# 
# Revision: 1
# Processed by: cddbd v1.5.2PL0 Copyright (c) Steve Scherf et al.
# Submitted via: BonkEnc v1.0.15
# 
DISCID=600ea807
DTITLE=Various Artist - Wind -a breath of heart- DRAMA CD from TV Animation Vol.2 Once upon a time...
DYEAR=2004
DGENRE=
TTITLE0=Various Artist - ある日の写真展
TTITLE1=Various Artist - 真・ひなた－花火大会の夜－
TTITLE2=Various Artist - 望・わかば－風の帽子－
TTITLE3=Various Artist - 勤・霞－禁断の一枚－
TTITLE4=Various Artist - みなも－はじめての出会い－
TTITLE5=Various Artist - 彩－遠い日の青空－
TTITLE6=Various Artist - みなもと日向のお料理がんばるぞ！part2
EXTD=
EXTT0=
EXTT1=
EXTT2=
EXTT3=
EXTT4=
EXTT5=
EXTT6=
PLAYORDER=
